<svg xmlns="http://www.w3.org/2000/svg" viewBox="0 0 360 520" role="img" aria-label="Màn hình qu£n lý nhân sñ JustPlay Portal">
  <defs>
    <linearGradient id="bg" x1="0" y1="0" x2="1" y2="1">
      <stop offset="0%" stop-color="#f8fafc"/>
      <stop offset="100%" stop-color="#e2e8f0"/>
    </linearGradient>
  </defs>
  <rect width="360" height="520" fill="url(#bg)"/>
  <rect x="0" y="0" width="360" height="52" fill="#dc2626"/>
  <text x="16" y="32" fill="#fff" font-family="Inter,Arial,sans-serif" font-size="11" font-weight="700">JustPlay · Nhân sñ</text>
  <rect x="16" y="68" width="328" height="48" rx="14" fill="#fff" stroke="#e2e8f0"/>
  <text x="28" y="98" fill="#1e293b" font-family="Inter,Arial,sans-serif" font-size="10" font-weight="700">Qu£n lý nhân sñ</text>
  <rect x="240" y="82" width="90" height="28" rx="14" fill="#dc2626"/>
  <text x="285" y="100" text-anchor="middle" fill="#fff" font-family="Inter,Arial,sans-serif" font-size="8" font-weight="700">+ Thêm</text>
  <rect x="16" y="128" width="328" height="300" rx="14" fill="#fff" stroke="#e2e8f0"/>
  <rect x="28" y="144" width="304" height="22" rx="4" fill="#f1f5f9"/>
  <text x="36" y="159" fill="#64748b" font-family="Inter,Arial,sans-serif" font-size="7" font-weight="700">HÌ TÊN</text>
  <text x="140" y="159" fill="#64748b" font-family="Inter,Arial,sans-serif" font-size="7" font-weight="700">VAI TRÒ</text>
  <text x="240" y="159" fill="#64748b" font-family="Inter,Arial,sans-serif" font-size="7" font-weight="700">THAO TÁC</text>
  <rect x="28" y="174" width="304" height="36" fill="#fff" stroke="#f8fafc"/>
  <circle cx="44" cy="192" r="10" fill="#fef2f2"/>
  <text x="44" y="196" text-anchor="middle" fill="#dc2626" font-family="Inter,Arial,sans-serif" font-size="8" font-weight="700">N</text>
  <text x="60" y="196" fill="#1e293b" font-family="Inter,Arial,sans-serif" font-size="8" font-weight="600">NguyÅn Vn A</text>
  <rect x="140" y="184" width="48" height="16" rx="8" fill="#eff6ff"/>
  <text x="164" y="196" text-anchor="middle" fill="#2563eb" font-family="Inter,Arial,sans-serif" font-size="7" font-weight="700">NV</text>
  <rect x="28" y="214" width="304" height="36" fill="#fafafa" stroke="#f8fafc"/>
  <circle cx="44" cy="232" r="10" fill="#fef2f2"/>
  <text x="44" y="236" text-anchor="middle" fill="#dc2626" font-family="Inter,Arial,sans-serif" font-size="8" font-weight="700">T</text>
  <text x="60" y="236" fill="#1e293b" font-family="Inter,Arial,sans-serif" font-size="8" font-weight="600">Tr§n ThË B</text>
  <rect x="140" y="224" width="48" height="16" rx="8" fill="#fffbeb"/>
  <text x="164" y="236" text-anchor="middle" fill="#d97706" font-family="Inter,Arial,sans-serif" font-size="7" font-weight="700">HOD</text>
</svg>
